<?xml version="1.0" encoding="utf-8"?>
<!-- Generator: Adobe Illustrator 25.3.1, SVG Export Plug-In . SVG Version: 6.00 Build 0)  -->
<svg version="1.1" id="レイヤー_1" xmlns="http://www.w3.org/2000/svg" xmlns:xlink="http://www.w3.org/1999/xlink" x="0px"
	 y="0px" viewBox="0 0 1280 240" style="enable-background:new 0 0 1280 240;" xml:space="preserve">
<style type="text/css">
	.st0{fill:#FFFFFF;}
</style>
<path class="st0" d="M311.1,42.2c-4.6,3.6-8.6,6.8-9.1,7.2s2.6,2.6,6.6,4.9l7.4,4.3l1.8,6.7c1,3.7,2,7.2,2.2,7.7s-2.9,1.6-6.9,2.4
	c-8.4,1.5-10.8,2.6-10.8,4.7c0,2.5,2.6,2.7,11.9,0.9c4.9-1,9.7-1.5,10.6-1.1c3.6,1.3,0.4,3.2-9.1,5.3l-9.9,2.1l-8.4-8.9
	c-4.6-5-8.6-8.9-9-8.7s-4.2,4-8.6,8.6l-7.9,8.3l7.9,16c5.7,11.3,8.6,16.1,10,16.5c1.1,0.3,5.1-0.7,9-2.1c8.8-3.1,17.9-5.4,27.1-6.9
	l4.2-0.6l2.1,8.6c0.8,2.9,1.4,5.9,1.9,8.9c-0.2,0.2-7.3,1.5-15.8,3c-20.1,3.4-22.2,4.1-21.8,6.8s2.4,2.7,20.8-0.2
	c11.5-1.8,13.7-1.9,14.8-0.7c2.4,2.3,0.6,3.3-8,4.5c-4.6,0.7-11.8,1.9-16.2,2.7s-7.9,1.4-8,1.4s-3.5-4-7.6-9l-7.3-8.9l-2.7,2.2
	c-8.6,6.8-15.9,13.3-15.9,14.1c-0.1,1.2,14.9,35.8,16.1,37.3c1.7,2.1,5.5,1.5,12.6-2.1c8.4-4.2,21.6-8.8,36.3-12.5l11.4-2.8l0.6,2.1
	c0.3,1.1,2.3,10.8,4.5,21.3c3.1,15.5,4.2,19.3,5.5,19.3c3.1,0,37.3-8.1,40-9.5c5.1-2.7,5.1-6.1,0-23.5l-3.9-13.2l8.6,0.6
	c4.8,0.4,12,1.2,16,1.8c6,0.9,7.6,0.9,8.7-0.3s11.5-34.9,11.5-37.5c0-1.1-16.8-16.4-18-16.4c-0.4,0-2.8,3.1-5.4,7l-4.6,7h-7.9
	c-4.3,0-10.5,0.3-13.8,0.6l-5.9,0.6l-2.2-7.5c-0.9-2.9-1.6-5.8-2.2-8.7c0-1.4,12.8-0.6,21.3,1.4c9.1,2.1,8.9,2.4,16.2-20.8
	c3.9-12.4,4.5-15.1,3.3-16.2c-0.7-0.7-4.4-3.7-8.2-6.7l-6.9-5.5l-5.6,5.9l-5.7,5.9h-26l-2.7-8.9c-3.1-10.2-3.2-11.4-1.5-14.1
	c0.7-1,1-2.2,0.7-2.4s-8.6-2.4-18.5-4.6l-19.6-4.4C320.1,35.9,316,38.3,311.1,42.2z"/>
<path class="st0" d="M876.7,36.9c-2.1,1.4-3.5,2.9-3.3,3.3s3,1.6,6.1,2.6l5.6,1.9l-0.3,4.1c-0.4,5-2.1,4.9-2.8-0.2
	c-0.3-2.5-1-3.8-2-3.8s-1.6,1.4-1.8,5.1l-0.3,5.1l-5.7,0.7c-5.6,0.6-5.7,0.5-9.4-3.4l-3.8-3.9l-4,5.9c-2.2,3.2-4,6.7-4,7.7
	s1.3,5.8,2.8,10.8l2.8,9h3.5c2.2-0.1,4.3-0.3,6.4-0.8c2.9-0.8,2.8-0.7-1.4,3.1l-4.5,3.9l3.4,1.1c3.9,1.4,7.2,4.1,6.4,5.3
	c-0.3,0.5-2,0.9-3.8,0.9c-2.4,0-4.1-0.9-6.6-3.5c-1.9-1.9-3.7-3.4-4.1-3.3c-1,0.4-8.9,10.6-8.9,11.5c0,0.4,1.4,5.4,3.1,11l3.2,10.1
	l-4.5,6.4l-4.5,6.3l3.1,11.5c1.8,6.3,3.5,12.1,3.9,12.7c1.1,1.8,2.7,1.6,11-1.2c10.2-3.4,15.7-4.2,15.7-2.3
	c0,3.1-16.2,18.8-19.4,18.8c-1.9,0,0.1-3,5.4-7.7c6.3-5.7,7-7,4.5-7.9c-0.9-0.4-4.1,1.5-8.3,4.8c-10.1,8.1-11.8,9-13.2,7.3
	c-1.6-2-4-1.9-4,0.1c0,1.5,7.6,15.7,14.8,27.6c4,6.8,6.7,8.2,9.5,5.1c0.9-1,3.9-6.1,6.6-11.3c4.1-7.7,5-8.8,4.6-6
	c-0.2,1.9-0.7,7.7-0.9,12.7l-0.6,9.3h16.4c13.9,0,16.5-0.2,17-1.5c0.3-0.9,0.1-5.7-0.4-10.8c-1.4-12.9-1.4-12.9,2.5-6.1
	c5.6,10,7.2,9.7,15.3-2.8l5.9-8.9l8.3,15.1c8.6,15.7,10.9,18,14.6,14.9c5.2-4.3,11.4-30.6,12.9-54.9c1.1-17.2,1.2-17.7,4.5-18.2
	l3-0.5v73.7h15.4c12.7,0,15.7-0.3,17-1.6s1.6-5.9,1.6-34.9c0-22.1-0.4-33.6-1-34c-0.9-0.3-1.8-0.1-2.5,0.5c-1.2,1-1.5,4.7-1.5,19.2
	c0,13.9-0.3,17.9-1.2,17.6s-1.4-5.5-1.6-20.4l-0.2-19.9h12.5l1.2-5c0.7-2.8,2.1-11.3,3.2-19l2.1-14l-7.3-6.7l-7.2-6.6l-4.8,7.4
	l-4.8,7.4h-5.7c-3.1,0-8.7,0.3-12.4,0.7l-6.8,0.6V83.5l4.8-1.1c15.7-3.9,40-13.7,43.1-17.4c2.8-3.5,0.5-6-17.3-18.5l-17.5-12.3
	l-7.1,3.6l-7.2,3.6l6.1,4.6c7.2,5.5,7,6-3.2,10.9c-10.6,5-13.6,2.4-3.6-3.1c9-5.1,7.3-9.8-1.8-5.1l-5,2.5l-9.7-3l-9.7-3l-3.8,3
	c-7.4,5.9-7.4,5.6,0.7,13l7.3,6.6l-0.3,24c-0.3,21.9-0.5,24-2,24.3c-1.7,0.3-1.8-1.3-1.8-23.8c0-14.7-0.4-24.9-1-26.1
	c-1.3-2.3-3.6-2.5-4.4-0.3c-0.3,0.9-0.6,15.6-0.6,32.7c-0.1,32.9-0.8,40.5-5,53.2c-2.1,6.3-3.2,7.6-4.5,5.5c-2.1-3.5-5.4,1.4-3.5,5
	s0.6,3.1-5.5-2.4c-3.3-3-5.6-5.7-5.2-6.2s3.3-0.3,6.5,0.4c4.6,1,5.9,0.9,7-0.2c0.7-0.7,2.6-6.4,4.2-12.7l2.9-11.4l-4.7-4.8
	c-4.5-4.6-4.6-4.7-2-4.7c1.5,0,3-0.5,3.4-1.1s1.7-5.9,3-11.8c2.5-11.8,2.8-10.4-4-17.8l-3-3.3l-2.9,3.5c-2.3,2.8-3.6,3.5-6.4,3.5
	h-3.5l2.1-3.4c3.8-6,3-7.2-5.8-9.2c-3.1-0.6-4.5-1.2-3.1-1.3c3,0.2,6.1,0.7,9,1.5c6.3,1.5,6.5,1.4,8.2-0.6c0.9-1.1,3.1-6.6,4.8-12.2
	l3.1-10.1l-5.2-5.3c-3-3-5.6-5.4-5.9-5.4s-1.6,1.6-2.9,3.5c-2.1,3.2-2.8,3.5-7.2,3.5H908v-4.8c0-2.7,0.7-5.7,1.6-7s1.4-2.5,1.2-2.7
	c-0.4-0.4-27.5-5.5-29.2-5.5C881,34.3,878.8,35.4,876.7,36.9z M898.6,81.4c-2.4,2.8-2.5,3.2-1,4.3s1.4,1.6,0.1,4.8
	c-1.2,2.8-2.2,3.6-4.6,4c-3.1,0.4-3.2,0.3-4.7-5.1c-2-7-4.3-9.1-10.3-9.2l-4.6-0.2l4-0.7c4.6-0.6,9.2-0.9,13.8-0.9l9.9-0.1
	L898.6,81.4z M905.3,79c-0.8,0.2-1.7,0.2-2.5,0c-0.7-0.3-0.2-0.5,1.2-0.5S905.9,78.7,905.3,79L905.3,79z M918.4,118.8l4.8,0.7
	l-3.3,3.4c-2.2,2.2-4.2,3.4-6,3.4c-4.8,0-5.9-0.9-5.9-5.1c0-3.6,0.1-3.8,2.8-3.4C912.3,118,915.7,118.5,918.4,118.8z M878,122.3
	c0,4.3,0.2,4.3-11.6,5.4c-4.7,0.4-5.4,0.2-8-2.5c-1.5-1.6-2.4-2.9-1.8-2.9s5-0.9,9.9-1.9C878.6,117.8,878,117.7,878,122.3z"/>
<path class="st0" d="M1185.1,38.8l-4.8,4.5h-8.8c-7.7,0-10-0.5-19.7-4l-11-4.1l-5.4,4.2c-1.9,1.4-3.7,2.9-5.4,4.6
	c0.9,1.5,1.9,3,3,4.3l3,3.8v59.2l16.8-0.6c8.8-0.4,17.7-0.4,26.5,0.1l9.7,0.7v16c0,14.6-0.1,15.9-1.7,15.6s-1.8-1.9-2.1-14.2
	c-0.3-14.3-1.1-17.7-3.8-15.5c-0.8,0.6-1.4,2.4-1.4,4s-0.2,2.9-0.5,2.9c-2.1-0.7-4.1-1.6-6.1-2.5l-5.7-2.5l-5.1,2.9l-5.1,2.8
	l-25.8,0.2c-25.5,0.1-25.8,0.1-30.6-2.3l-4.8-2.5l-5.2,3.5l-5.1,3.5v-11.8l6.1-0.7c3.4-0.3,12.9-0.6,21-0.6h14.9V59.9l2.9-3.1l3-3
	l-7.1-6c-15.8-13.5-17.2-13.9-24.2-7.5c-4.3,4-4.4,4-12.2,4c-7,0-9.1-0.5-19.7-4.7l-11.8-4.7l-5.4,5.4c-3,3-5.5,5.9-5.4,6.5
	s3.2,3.6,7,6.8l6.9,5.9v21.8c0,15-0.4,22.1-1.1,22.6c-2.4,1.4-2.9-2.8-2.9-23.8c0-21.8-0.4-24.4-3.5-21.8
	c-1.3,1.1-1.5,11.7-1.5,75.1v73.9h14.8c8.1,0,15.4-0.5,16.2-1c1.1-0.7,1.6-3.5,2-11.1l0.5-10.1l5.4,7.7c2.9,4.2,6,7.9,6.8,8.2
	s6.6-1,12.7-3c9.5-3.1,24.3-6.7,27.5-6.7c0.6,0,1.1,3,1.3,6.7l0.3,6.8l12.4,0.3c8.2,0.2,12.8-0.1,13.7-0.9s1.4-3.4,1.4-8.2
	c0-3.9,0.3-6.7,0.8-6.3s2.1,4.9,3.8,9.9l3.1,9.2l11.8-0.2c14.6-0.2,19.5-2.2,23.3-9.4c3.6-7.1,4.2-17.6,4.2-79.8V62.1l2.5-3
	c1-1.1,1.9-2.3,2.5-3.7c0-0.7-16.3-14.5-22.3-18.9C1193.1,33.2,1190.6,33.7,1185.1,38.8z M1101,66.8v4.6l-7.7-0.3
	c-7.7-0.3-7.8-0.3-8.1-3.1c-0.6-5.2,0.1-5.7,8.3-5.7h7.5L1101,66.8z M1183,66.3v4h-18v-8h18V66.3z M1183,88.3v4h-18v-8h18V88.3z
	 M1101,89.3v4h-16v-8h16V89.3z M1178.9,179.9c-0.7,0.8-1.6,1.3-2.7,1.4c-1.1,0-1.3-0.9-0.9-4l0.5-4h-7.8v-16.4
	c0-16.3,0-16.5,2.3-16.8c1.7-0.2,2.9-2,5.7-8.9l3.5-8.7l0.3,28C1180,170.4,1179.7,179,1178.9,179.9z M1095.5,140.8
	c1.7-0.1,5.1-0.4,7.8-0.8l4.7-0.7v7.5c0,4-0.4,7.6-0.8,7.9c-1.8,1.1-3.1-1.3-3.4-6.4c-0.3-4.7-0.6-5.5-2.3-5.5
	c-1.9,0-2,0.8-2.3,17.3c-0.2,16-0.4,17.3-2,16.7c-4.1-1.7-5-1.5-8,2l-3.2,3.6v-26.8l0.1-26.8l3.2,6
	C1092.1,140.1,1092.8,140.8,1095.5,140.8z M1144,140.8v3.5h-19v-7h19V140.8z M1141.8,154.3c1.8,0,2.2,0.6,2.2,3v3h-19v-2.9
	c0-2.7,0.4-3,3.8-3.4c2.4-0.3,4.8-0.3,7.2-0.1C1137.9,154.1,1140.5,154.3,1141.8,154.3z M1144,172.8c0,1.9-0.7,2.3-4.6,2.9
	c-2.6,0.3-6.9,0.6-9.5,0.6c-4.8,0-4.9-0.1-4.9-2.9s0.2-3,4.8-3.3c2.6-0.2,6.8-0.1,9.5,0C1143.4,170.5,1144,170.8,1144,172.8z"/>
<path class="st0" d="M163.8,47.6c-1.9,2.2-3.7,4.5-5.3,6.9c-0.2,0.5,2.6,2.7,6.1,5c4.6,2.9,6.4,4.6,6.1,5.8
	c-3.2,14.4-9.3,33.6-16.8,53c-2.7,7.1-3.3,9.8-2.6,11.6c1.3,3.5,2.7,4,4.4,1.4c1.9-3.1,10.4-26.1,16.1-44.1
	c4.6-14.1,6.6-17.7,8.5-14.7c1.5,2.4-5.3,22.9-18.2,55.2c-3.9,9.9-7.4,17.5-7.8,17.1s-4.8-13-9.8-27.8c-8.6-25.6-21.2-59.8-25-67.5
	l-1.7-3.5l-21.1-0.3l-21-0.2L69.9,52c-3.2,3.7-5.5,6.9-5.1,7.3c2.3,1.7,4.8,3.3,7.3,4.8l6.7,4l5.3,12c6.9,15.3,25.7,62.7,36.2,90.9
	c4.5,12.1,8.5,22.3,8.9,22.7c1,1.1,42-2.4,43.8-3.7c1.4-1,1.4-1.8,0.3-6.3l-1.3-5.1l7.6-16.8c13.6-30.1,30.5-70.9,39.8-96.6
	c4-11.1,4.2-12.1,2.8-14.5c-1.1-2-2.6-2.9-5.9-3.5c-4-0.6-45.7-5.7-47-5.7C169,41.5,166.6,44.2,163.8,47.6z"/>
<path class="st0" d="M666.5,54.3c-7,5.5-9.9,8.4-9.7,9.6c0.7,3.6,14.2,40.7,15.3,42c1.7,2.1,5.1,1.7,13.1-1.5
	c13-5.1,34.6-9.6,56.5-11.6l7.3-0.7l-2.2,4.8c-5.9,13.4-16.3,27.4-20.4,27.4c-3.9,0-2.9-3,3.6-11.1c3.2-4.1,6.7-8.9,7.7-10.6
	c1.6-3,1.6-3.4,0.1-4.9c-2.4-2.5-4.9-1-9.8,5.8c-7.4,10.5-26.4,28.6-37.5,36c-7.8,5.2-27.9,15.8-30,15.8c-1.4-1.5-2.7-3.2-3.9-4.9
	c-3.9-5.3-6.5-6.6-9.2-4.6c-1.6,1.1-1.6,1.8-0.6,5.2c2.2,7.3,25,52.1,27.1,53.2c4,2.2,10.3,1.3,16.4-2.4c13.6-8.2,33-24.1,48.2-39.4
	c4.4-4.5,8.3-8.1,8.7-8.1c1.4,0,18.4,10.8,23.8,15.1c3.8,3,5,4.6,4.8,6.2c-0.6,4.1-4.2,3.2-12.5-3.1c-14.1-10.7-17.9-12.6-20.1-10
	c-1.6,2.1,0,4.4,6.8,9.4c9.1,6.6,17.7,13.9,30.7,26c6.1,5.7,11.4,10.4,11.6,10.4c0.8,0,14.4-17.3,21.7-27.5
	c7.2-9.9,8.2-14.4,4.5-18.5c-3.4-3.8-23.3-16.4-37.7-24l-13.7-7.1l7.3-9.7c7.8-10.3,20.2-28.9,25.6-38.5l3.3-5.9l-6.9-7
	c-3.8-3.8-10.5-10.2-14.8-14.1l-8-7l-17.5,0.6c-17.1,0.7-41.9,2.7-58.9,4.8l-8.4,1l-5.3-4.6c-2.9-2.5-5.7-4.5-6.2-4.4
	S672,50,666.5,54.3z"/>
<path class="st0" d="M495.4,65c-3.5,3.1-6.3,5.9-6.3,6.4s2.2,2.2,4.9,3.9l4.9,3.2l0.7,7.5c0.4,4.2,0.3,7.9-0.2,8.4s-3,1.3-5.7,2
	l-5,1.4l-3.6-4.2c-1.9-2.3-3.8-4.2-4.2-4.2s-10.3,12.7-12.2,15.7c-0.8,1.4,8.8,34.4,11,38c2,3.2,4.4,2.9,12.7-1.6
	c7.6-4.2,21.6-10.1,23.9-10.1c0.9,0,2.7,5.6,5.6,16.8c5,19.5,5.1,21.5,2,21c-2.1-0.3-2.7-1.9-6.3-15.7c-4.2-16.3-5.9-19.2-9.1-15.9
	c-1.6,1.6-1.4,2.8,2.5,19.2c2.4,9.7,6.2,24,8.6,31.9c3.7,11.8,4.9,14.7,7.6,17.1c3,2.6,3.6,2.8,8.9,2.3c7.3-0.8,37-9.4,39-11.3
	c1.1-1.1,1.2-1.8,0.3-3.2s-2.2-1.6-6.6-1.4l-5.5,0.3l-2.5-5.4c-6.2-13-12.1-31.9-15.6-50.2c-1.2-6.1-2.4-12-2.6-13.1
	c-0.4-1.8,0.1-2.3,2.8-2.8c4.5-0.9,26-4.6,27-4.6c1.6,0-9.8,15.3-13.9,18.6s-4.4,3.4-6.6,2c-1.5-1-2.8-1.2-3.8-0.6
	c-2.1,1.3-0.4,4.2,10.5,17.3c9.5,11.5,9.7,11.7,13.8,11.7c3.9,0,4.7-0.5,11.5-7.7c9-9.4,18-22.8,26.1-39.1l6.1-12.2l-6.1-6.6
	c-3.4-3.6-9.6-9.9-13.8-14l-7.7-7.3L578,80c-5.7,0.8-16.9,2.6-24.8,4s-14.5,2.3-14.8,2c-0.6-3.3-0.9-6.6-1-10
	c-0.3-5.3-1.1-10.3-1.8-11.2c-0.8-1.2-5.1-2.1-16.6-3.5c-8.5-1-15.8-1.8-16.4-1.9S498.8,61.9,495.4,65z"/>
</svg>
